<svg width="158" height="158" viewBox="0 0 158 158" fill="none" xmlns="http://www.w3.org/2000/svg">
<g id="&#235;&#133;&#184;&#237;&#138;&#184;&#38;&#237;&#142;&#156;_&#236;&#149;&#132;&#236;&#157;&#180;&#236;&#189;&#152;" clip-path="url(#clip0_215_1232)">
<g id="Group">
<path id="Vector" d="M1.08105 17.549V156.239L110.048 153.957L111.318 15.5801L1.08105 17.549Z" fill="white"/>
<path id="Vector_2" d="M1.08124 157.318C0.804647 157.318 0.52805 157.205 0.326888 157.005C0.125726 156.804 0 156.528 0 156.24V17.5494C0 16.96 0.465187 16.4834 1.0561 16.4709L111.305 14.502C111.594 14.502 111.871 14.6148 112.085 14.8155C112.286 15.0161 112.412 15.3046 112.399 15.593L111.129 153.97C111.129 154.547 110.652 155.023 110.073 155.036L1.10639 157.318H1.08124ZM2.16249 18.6028V155.136L108.992 152.904L110.237 16.6715L2.16249 18.6028Z" fill="black"/>
</g>
<g id="Group_2">
<path id="Vector_3" d="M142.573 10.6775C143.441 8.58313 144.308 6.50133 145.176 4.407C145.591 3.40372 146.068 2.3252 147.024 1.78594C147.917 1.27176 149.035 1.34701 150.054 1.52258C151.286 1.72323 152.669 2.18725 153.096 3.32847C153.499 4.39445 152.87 5.53568 152.267 6.50133C150.859 8.74616 149.388 10.9534 147.879 13.1229C147.552 13.587 147.212 14.0635 146.722 14.352C146.307 14.5902 145.829 14.6655 145.352 14.6655C144.233 14.6655 143.101 14.1764 142.473 13.2734C141.857 12.3705 141.857 11.0537 142.561 10.6649L142.573 10.6775Z" fill="white"/>
<path id="Vector_4" d="M145.364 15.7441C143.831 15.7441 142.397 15.0292 141.605 13.8755C141.039 13.0603 140.826 12.0069 141.039 11.1165C141.153 10.6524 141.379 10.2511 141.706 9.97523L144.195 3.98066C144.585 3.02755 145.188 1.58534 146.508 0.832887C147.728 0.143136 149.149 0.256004 150.243 0.444118C152.33 0.782723 153.625 1.62297 154.127 2.92722C154.756 4.59517 153.7 6.25057 153.197 7.05319C151.776 9.29802 150.293 11.5428 148.784 13.725C148.457 14.2015 148.005 14.8537 147.275 15.2675C146.747 15.581 146.106 15.7315 145.377 15.7315L145.364 15.7441ZM143.139 11.593C143.076 11.7435 143.076 12.2451 143.365 12.6715C143.755 13.2359 144.535 13.5996 145.352 13.5996C145.691 13.5996 145.98 13.5369 146.182 13.424C146.458 13.261 146.697 12.9349 146.986 12.521C148.482 10.3765 149.953 8.15679 151.349 5.93705C151.839 5.17205 152.304 4.29419 152.078 3.70476C151.877 3.17804 151.097 2.78927 149.865 2.58862C149.111 2.46321 148.168 2.37542 147.539 2.72657C146.911 3.07771 146.546 3.89288 146.156 4.82091L143.554 11.0914C143.466 11.3046 143.315 11.4801 143.114 11.593H143.139Z" fill="black"/>
</g>
<g id="Group_3">
<path id="Vector_5" d="M24.064 4.4061C22.5301 4.76978 20.7951 5.25888 20.1036 6.65092C19.7516 7.34068 19.739 8.13075 19.7138 8.89575C19.6258 12.8211 19.5378 16.7464 19.9653 20.6466C20.1162 22.0261 20.3676 23.4683 21.2854 24.5343C22.1906 25.6003 23.9634 26.0768 25.0572 25.1864C25.9624 24.4465 26.0504 23.1423 26.063 21.9885C26.1259 18.0381 26.1887 14.0752 26.2516 10.1248C26.2893 8.04297 25.975 5.43445 24.0765 4.39355L24.064 4.4061Z" fill="white"/>
<path id="Vector_6" d="M23.6741 26.7419C22.4672 26.7419 21.2351 26.1399 20.4681 25.237C19.3869 23.9703 19.0851 22.34 18.9091 20.7724C18.4691 16.7969 18.5571 12.7713 18.6451 8.87104C18.6702 8.06842 18.6828 7.07769 19.148 6.1622C20.1287 4.21835 22.5426 3.65401 23.825 3.35303C24.089 3.29032 24.3531 3.32795 24.5919 3.45336C26.4653 4.48171 27.3831 6.72654 27.3328 10.1377L27.1442 22.0014C27.1316 23.0172 27.0939 24.8984 25.7361 26.0145C25.1326 26.5161 24.4034 26.7293 23.6741 26.7293V26.7419ZM23.8627 5.56023C22.6809 5.86122 21.4991 6.27507 21.059 7.12785C20.8202 7.60441 20.795 8.26908 20.7824 8.92121C20.6944 12.7462 20.6064 16.6966 21.0339 20.5341C21.1596 21.6879 21.3608 22.9796 22.1026 23.8449C22.6432 24.472 23.7747 24.8482 24.3656 24.3591C24.9063 23.9202 24.9691 22.9044 24.9817 21.9763L25.1703 10.1126C25.208 7.8176 24.768 6.28761 23.8627 5.56023Z" fill="black"/>
</g>
<g id="Group_4">
<path id="Vector_7" d="M58.1235 4.4061C56.5897 4.76978 54.8547 5.25888 54.1632 6.65092C53.8111 7.34068 53.7986 8.13075 53.7734 8.89575C53.6854 12.8211 53.5974 16.7464 54.0249 20.6466C54.1757 22.0261 54.4272 23.4683 55.345 24.5343C56.2628 25.6003 58.023 26.0768 59.1168 25.1864C60.022 24.4465 60.11 23.1423 60.1226 21.9885C60.1854 18.0381 60.2483 14.0752 60.3112 10.1248C60.3489 8.04297 60.0346 5.43445 58.1361 4.39355L58.1235 4.4061Z" fill="white"/>
<path id="Vector_8" d="M57.721 26.7419C56.5141 26.7419 55.2819 26.1399 54.515 25.237C53.4338 23.9703 53.132 22.34 52.956 20.7724C52.516 16.7844 52.604 12.7713 52.692 8.87104C52.7045 8.08096 52.7297 7.09023 53.1949 6.1622C54.1755 4.21835 56.5895 3.65401 57.8719 3.35303C58.1359 3.29032 58.3999 3.32795 58.6388 3.45336C60.5121 4.48171 61.4299 6.72654 61.3797 10.1377L61.1911 22.0014C61.1785 23.0172 61.1408 24.8984 59.7829 26.0145C59.1669 26.5161 58.4502 26.7293 57.721 26.7293V26.7419ZM57.9222 5.56023C56.7404 5.86122 55.5585 6.27507 55.1185 7.12785C54.8796 7.61695 54.8545 8.26908 54.8419 8.90866C54.7539 12.7337 54.6659 16.684 55.0933 20.5216C55.2191 21.6753 55.4202 22.9671 56.162 23.8324C56.7026 24.4594 57.8342 24.8357 58.4251 24.3466C58.9657 23.9076 59.0286 22.8918 59.0411 21.9638L59.2297 10.1001C59.2675 7.80506 58.8274 6.27507 57.9222 5.54769V5.56023Z" fill="black"/>
</g>
<g id="Group_5">
<path id="Vector_9" d="M92.1699 4.4061C90.6361 4.76978 88.901 5.25888 88.2096 6.65092C87.8575 7.34068 87.8449 8.13075 87.8198 8.89575C87.7318 12.8211 87.6438 16.7464 88.0713 20.6466C88.2221 22.0261 88.4736 23.4683 89.3914 24.5343C90.3092 25.6003 92.0693 26.0768 93.1632 25.1864C94.0684 24.4465 94.1564 23.1423 94.169 21.9885C94.2318 18.0381 94.2947 14.0752 94.3576 10.1248C94.3953 8.04297 94.081 5.43445 92.1825 4.39355L92.1699 4.4061Z" fill="white"/>
<path id="Vector_10" d="M91.7801 26.7419C90.5731 26.7419 89.341 26.1399 88.5741 25.237C87.4928 23.9703 87.1911 22.34 87.0151 20.7724C86.575 16.7969 86.663 12.7713 86.7511 8.87104C86.7762 8.06842 86.7888 7.07769 87.254 6.1622C88.2346 4.21835 90.6486 3.65401 91.9435 3.35303C92.2076 3.29032 92.4716 3.32795 92.7105 3.45336C94.6089 4.49425 95.5016 6.67638 95.4513 10.1377L95.2627 22.0014C95.2501 23.0172 95.2124 24.8984 93.8672 26.002C93.2511 26.5036 92.5345 26.7168 91.8052 26.7168L91.7801 26.7419ZM91.9687 5.56023C90.7869 5.86122 89.605 6.27507 89.165 7.12785C88.9261 7.60441 88.901 8.26908 88.8884 8.92121C88.8004 12.7462 88.7124 16.6966 89.1399 20.5341C89.2656 21.6879 89.4667 22.9796 90.2085 23.8449C90.7491 24.472 91.8807 24.8482 92.4716 24.3591C93.0122 23.9202 93.0751 22.9044 93.0877 21.9763L93.2762 10.1126C93.314 7.8176 92.8739 6.28761 91.9687 5.56023Z" fill="black"/>
</g>
<g id="Group_6">
<path id="Vector_11" d="M116.837 55.5985C110.388 68.315 105.384 79.953 98.1795 94.1619C97.5383 96.0555 96.7085 97.9116 96.3062 99.868C95.9039 101.837 95.9919 103.981 97.0605 105.687C98.1292 107.393 100.392 108.471 102.303 107.781C103.9 107.204 104.881 105.649 105.723 104.207C114.096 89.8352 121.464 74.5729 129.146 59.8373L116.837 55.5859V55.5985Z" fill="white"/>
<path id="Vector_12" d="M101.071 109.073C99.1855 109.073 97.2493 108.02 96.1429 106.264C94.7474 104.044 94.8857 101.448 95.2503 99.6676C95.552 98.2004 96.0675 96.8209 96.5578 95.479C96.759 94.9272 96.9727 94.3754 97.1613 93.8236C97.1739 93.7734 97.199 93.7358 97.2242 93.6856C100.921 86.3993 104.051 79.7652 107.069 73.3442C109.985 67.1615 112.739 61.3049 115.882 55.1097C116.121 54.6331 116.687 54.3949 117.202 54.583L129.511 58.8344C129.812 58.9347 130.039 59.1604 130.164 59.4489C130.278 59.7373 130.265 60.0634 130.114 60.3393C127.926 64.5405 125.726 68.8546 123.589 73.0307C118.22 83.5651 112.663 94.4506 106.666 104.747C105.899 106.064 104.743 108.058 102.681 108.797C102.165 108.986 101.625 109.073 101.084 109.073H101.071ZM99.1729 94.576C98.9843 95.1278 98.7832 95.6671 98.582 96.2189C98.0917 97.5357 97.6265 98.7898 97.3625 100.094C97.0733 101.499 96.9476 103.505 97.966 105.123C98.7203 106.327 100.455 107.305 101.939 106.778C103.158 106.339 103.976 105.06 104.793 103.681C110.765 93.4348 116.309 82.5744 121.665 72.065C123.614 68.2526 125.613 64.3147 127.625 60.4647L117.378 56.9281C114.424 62.7848 111.796 68.3655 109.017 74.2597C106 80.6681 102.882 87.2897 99.1855 94.5886L99.1729 94.576Z" fill="black"/>
</g>
<g id="Group_7">
<path id="Vector_13" d="M129.435 63.2362C126.996 62.2078 117.956 58.0066 114.134 55.5235C118.66 47.8485 120.207 43.0077 124.23 34.9062C125.789 31.7584 131.61 20.5218 132.83 18.1264C137.67 8.57025 144.547 10.6019 148.307 13.2104C155.02 17.8631 147.401 26.8926 146.031 29.4133C139.795 40.8632 134.728 50.6451 129.448 63.2362H129.435Z" fill="#587DFF"/>
<path id="Vector_14" d="M129.435 64.3149C129.297 64.3149 129.146 64.2898 129.02 64.2271C126.657 63.2239 117.491 58.985 113.543 56.4141C113.066 56.1006 112.915 55.461 113.204 54.9719C116.02 50.1938 117.63 46.6071 119.503 42.4561C120.609 39.9981 121.753 37.4522 123.262 34.4299C124.243 32.461 126.87 27.3568 128.983 23.2559C130.278 20.7352 131.397 18.5531 131.862 17.6501C133.936 13.5367 136.602 11.0536 139.782 10.251C143.693 9.26022 147.188 11.1414 148.923 12.3453C155.511 16.9227 150.155 25.0618 147.867 28.5356C147.489 29.1125 147.15 29.6142 146.974 29.9402C140.386 42.0297 135.571 51.4228 130.428 63.6628C130.315 63.9262 130.102 64.1394 129.837 64.2397C129.712 64.2898 129.573 64.3149 129.435 64.3149ZM115.58 55.16C119.226 57.3547 125.89 60.4899 128.857 61.8193C133.861 50.0183 138.789 40.4244 145.063 28.9119C145.289 28.5106 145.616 27.9964 146.044 27.3442C149.413 22.215 151.94 17.0732 147.665 14.101C146.232 13.1103 143.366 11.5552 140.285 12.3327C137.746 12.9723 135.558 15.0918 133.773 18.6158C133.308 19.5187 132.189 21.7008 130.894 24.2341C128.781 28.335 126.154 33.4391 125.186 35.383C123.702 38.3803 122.558 40.901 121.464 43.3465C119.767 47.1339 118.145 50.7206 115.58 55.1726V55.16Z" fill="black"/>
</g>
<path id="Vector_15" d="M138.248 60.9164C137.469 60.9164 136.702 60.7032 136.086 60.2768C134.338 59.0854 133.609 56.6149 134.301 54.2697C134.879 52.3133 136.212 50.7583 137.381 49.3913L148.332 36.5995C150.519 34.0537 152.77 31.4201 154.241 28.4228C155.837 25.1998 156.252 21.9266 155.41 19.2178C154.467 16.1578 151.714 13.8503 148.86 13.7374C148.269 13.7123 147.804 13.2107 147.829 12.6213C147.854 12.0318 148.357 11.5553 148.948 11.5929C152.745 11.7434 156.252 14.6278 157.472 18.6033C158.465 21.8389 158 25.6764 156.164 29.3885C154.568 32.6241 152.229 35.358 149.953 38.0041L139.003 50.7959C137.972 51.9998 136.802 53.3668 136.35 54.8842C135.985 56.1132 136.186 57.7561 137.28 58.5085C137.758 58.8346 138.512 58.8597 139.128 58.5713C139.38 58.4584 139.795 58.195 139.845 57.7436C139.908 57.1541 140.436 56.7152 141.027 56.7904C141.618 56.8531 142.045 57.3799 141.982 57.9693C141.869 59.0729 141.153 60.0135 140.021 60.5276C139.455 60.791 138.827 60.9164 138.223 60.9164H138.248Z" fill="black"/>
<path id="Vector_16" d="M95.8411 115.08C95.6902 115.08 95.5393 115.043 95.3885 114.98C94.8478 114.729 94.609 114.09 94.8604 113.55L97.8401 107.154C98.0916 106.615 98.7328 106.389 99.2734 106.628C99.814 106.879 100.053 107.518 99.8014 108.057L96.8217 114.453C96.6332 114.842 96.256 115.08 95.8411 115.08Z" fill="black"/>
<path id="Vector_17" d="M91.0506 46.8325C91.0506 46.8325 91.0255 46.8325 91.0129 46.8325C67.917 46.1552 44.4817 46.08 21.3732 46.6318C20.7949 46.6318 20.2794 46.1803 20.2669 45.5784C20.2543 44.9889 20.7195 44.4873 21.3229 44.4748C44.4691 43.923 67.9422 43.9982 91.0758 44.6754C91.6667 44.6879 92.1445 45.1896 92.1193 45.779C92.1067 46.3559 91.629 46.8199 91.0381 46.8199L91.0506 46.8325Z" fill="black"/>
<path id="Vector_18" d="M61.0652 69.4694C47.4868 69.4694 33.8958 69.1433 20.418 68.4787C19.8271 68.4536 19.3619 67.9394 19.3996 67.35C19.4247 66.7606 19.9151 66.2965 20.5311 66.3342C43.0361 67.4378 65.868 67.6259 88.3729 66.8734C88.3729 66.8734 88.3981 66.8734 88.4107 66.8734C88.989 66.8734 89.4668 67.3374 89.4919 67.9143C89.5171 68.5038 89.0393 69.0054 88.4484 69.0305C79.3584 69.3315 70.2181 69.4819 61.0778 69.4819L61.0652 69.4694Z" fill="black"/>
<path id="Vector_19" d="M60.1224 92.093C46.5566 92.093 32.9782 91.8547 19.5003 91.3907C18.9094 91.3656 18.4442 90.8765 18.4568 90.2745C18.4819 89.6851 18.9848 89.2211 19.5758 89.2336C41.5275 89.9986 63.8062 90.1366 85.758 89.6475H85.7831C86.3615 89.6475 86.8518 90.1115 86.8644 90.7009C86.8769 91.2904 86.3992 91.792 85.8083 91.8045C77.284 91.9926 68.7095 92.0804 60.135 92.0804L60.1224 92.093Z" fill="black"/>
<path id="Vector_20" d="M41.6532 113.099C33.9588 113.099 26.2769 112.974 18.6453 112.723C18.0544 112.698 17.5892 112.209 17.6018 111.607C17.627 111.017 18.1299 110.528 18.7208 110.566C36.8505 111.155 55.2442 111.042 73.3739 110.227C73.9648 110.177 74.4677 110.666 74.5055 111.256C74.5306 111.845 74.078 112.347 73.4745 112.384C62.9261 112.861 52.2896 113.099 41.6784 113.099H41.6532Z" fill="black"/>
<path id="Vector_21" d="M17.8781 132.475C17.2872 132.475 16.7969 131.999 16.7969 131.409C16.7969 130.82 17.2746 130.331 17.8655 130.331L87.4172 129.979C88.0081 129.979 88.4985 130.456 88.4985 131.045C88.4985 131.635 88.0207 132.124 87.4298 132.124L17.8781 132.475Z" fill="black"/>
<g id="Group_8" opacity="0.13">
<path id="Vector_22" d="M124.419 60.7401C122.96 59.9751 121.59 59.0597 120.031 58.4953C119.981 58.4702 119.93 58.4577 119.893 58.4451C119.867 58.4326 119.842 58.4201 119.805 58.4075C118.924 58.0188 118.057 57.63 117.177 57.2538C116.699 56.9653 116.096 56.8901 115.555 57.0406C113.807 57.4544 113.481 60.0128 115.052 60.8655C116.322 61.455 117.655 61.919 118.836 62.6589C120.609 63.9632 122.483 65.1169 124.557 65.8819C124.368 65.8067 124.18 65.7314 124.004 65.6436C125.613 66.5842 127.725 66.2707 128.04 64.2014C128.404 62.0569 125.915 61.4801 124.431 60.7401H124.419Z" fill="black"/>
</g>
<g id="Group_9" opacity="0.13">
<path id="Vector_23" d="M150.72 16.3335C150.041 14.5401 147.225 15.117 147.263 17.0232C147.363 20.3716 144.321 24.5729 141.794 29.2381C139.556 33.2763 137.469 37.3772 135.445 41.5157C133.621 45.1525 131.635 48.7142 129.963 52.4137C129.171 54.2949 128.178 56.1008 127.335 57.9568C126.82 59.236 125.94 60.9917 127.398 61.995C128.178 62.6722 129.435 62.5468 130.151 61.832C130.956 60.766 131.22 59.374 131.71 58.1199C131.723 58.0948 131.773 57.9819 131.886 57.7687C133.383 54.7087 134.791 51.5986 136.375 48.5762C140.712 39.5467 146.332 31.1318 149.928 21.7637C150.393 20.6099 150.683 19.406 150.808 18.177C150.833 17.5625 150.997 16.8978 150.72 16.3335Z" fill="black"/>
</g>
<g id="Group_10" opacity="0.13">
<path id="Vector_24" d="M111.67 50.7827C112.009 43.0199 111.079 35.2947 110.978 27.5444C110.916 24.6349 110.614 21.7379 110.413 18.8284C110.312 17.8001 110.45 16.6212 109.621 15.8562C108.225 14.3764 105.497 15.48 105.56 17.5367C106.151 24.1458 106.352 30.7674 106.578 37.4016C107.144 46.895 106.943 56.4136 106.779 65.9071C106.804 66.7348 106.553 67.6378 106.93 68.4153C107.282 69.4562 108.514 69.9704 109.545 69.6945C111.33 69.2305 111.205 67.3368 111.268 65.8695C111.318 64.2015 111.657 62.5587 111.695 60.8782C111.708 57.5172 111.595 54.1437 111.683 50.7827H111.67Z" fill="black"/>
</g>
<g id="Group_11" opacity="0.13">
<path id="Vector_25" d="M110.249 126.079C110.199 120.862 110.312 115.645 110.564 110.441C110.689 108.234 110.388 106.026 110.626 103.832C110.802 102.716 111.356 101.624 111.23 100.508C110.978 97.9876 107.232 97.7367 106.591 100.195C106.239 101.311 105.987 102.44 105.799 103.593C105.208 104.283 104.843 105.111 104.315 105.838C104.139 106.051 103.888 106.352 103.699 106.528C103.674 106.553 103.636 106.578 103.611 106.616C103.485 106.603 103.359 106.591 103.234 106.591C100.694 106.54 98.5693 108.359 99.8014 110.942C100.92 112.698 103.322 112.786 105.132 112.058C104.981 115.357 105.006 118.668 105.107 121.966C105.107 124.487 104.956 127.02 105.032 129.541C105.044 133.566 105.736 137.529 106 141.53C106.125 145.656 105.786 146.521 105.522 150.308C105.447 151.023 105.069 151.725 105.208 152.453C105.296 153.908 107.144 154.76 108.351 153.995C108.715 153.745 109.03 153.444 109.206 153.042C109.294 152.867 109.382 152.654 109.445 152.516C109.419 152.578 109.382 152.654 109.344 152.754C109.998 151.475 110.161 150.058 110.362 148.653C110.828 147.261 110.752 142.232 110.752 138.821C110.689 134.569 110.325 130.343 110.237 126.092L110.249 126.079Z" fill="black"/>
</g>
<g id="Group_12" opacity="0.13">
<path id="Vector_26" d="M25.1327 22.7038C24.3658 21.4121 24.7681 22.0893 24.1646 20.1706C24.1017 19.8821 23.9634 19.6313 23.7749 19.4181C22.3793 17.4993 19.2739 19.067 19.9276 21.3369C20.1665 22.2649 20.3803 23.2055 20.7323 24.0959C20.9712 24.6728 21.1723 25.3374 21.7381 25.676C23.6743 27.2687 26.4277 24.8233 25.1453 22.6913L25.1327 22.7038Z" fill="black"/>
</g>
<g id="Group_13" opacity="0.13">
<path id="Vector_27" d="M58.8019 20.2208C58.3619 19.5436 58.123 18.6532 57.4315 18.1767C55.5456 16.6216 52.8677 19.0044 54.1123 21.0862C54.7535 22.0142 55.093 23.2307 55.9731 23.958C57.3184 25.1494 59.594 23.9831 59.5437 22.2148C59.5563 21.4749 59.1162 20.8604 58.7894 20.2334L58.8019 20.2208Z" fill="black"/>
</g>
<g id="Group_14" opacity="0.13">
<path id="Vector_28" d="M93.1253 21.0231C92.7482 19.907 92.8362 18.5651 92.1447 17.5995C90.7617 15.6932 87.6688 17.2483 88.31 19.5057C88.7878 21.0106 88.6621 23.0673 90.1079 24.033C92.1698 25.0989 93.93 23.0548 93.1253 21.0231Z" fill="black"/>
</g>
</g>
<defs>
<clipPath id="clip0_215_1232">
<rect width="158" height="157" fill="white" transform="translate(0 0.318359)"/>
</clipPath>
</defs>
</svg>
