<svg width="202" height="53" viewBox="0 0 202 53" fill="none" xmlns="http://www.w3.org/2000/svg">
<g id="tode-logo">
<path id="Vector" d="M181.437 48.4324C179.277 48.3244 177.279 47.6494 175.443 46.4074C172.419 44.0854 170.691 40.1704 170.259 34.6624C170.205 33.6904 170.178 32.6914 170.178 31.6654C170.178 29.3974 170.313 27.1024 170.583 24.7804V24.5374C170.745 20.9194 171.285 17.3554 172.203 13.8454C173.067 10.5514 174.633 7.66236 176.901 5.17836C179.547 2.47836 182.733 0.88536 186.459 0.399363L187.917 0.318359C189.591 0.318359 191.211 0.66936 192.777 1.37136C194.829 2.39736 196.098 4.01736 196.584 6.23136L196.665 7.20336C196.665 8.28336 196.341 9.39036 195.693 10.5244C195.099 11.6584 194.208 12.6304 193.02 13.4404C190.536 14.8984 187.836 15.6814 184.92 15.7894L184.596 15.8704C181.842 15.8704 180.195 16.7344 179.655 18.4624L179.574 18.9484C179.574 19.6504 179.844 20.2444 180.384 20.7304C180.924 21.1624 181.464 21.3784 182.004 21.3784C182.76 21.3784 183.462 21.2704 184.11 21.0544C184.812 20.8384 185.487 20.7304 186.135 20.7304C186.729 20.7844 187.296 20.9464 187.836 21.2164C188.754 21.7564 189.213 22.4854 189.213 23.4034C189.213 24.3754 188.781 25.2664 187.917 26.0764C187.107 26.8324 186.081 27.3994 184.839 27.7774C181.923 28.8574 180.465 30.3424 180.465 32.2324C180.465 32.5024 180.519 32.7994 180.627 33.1234C181.221 34.2034 182.139 34.7434 183.381 34.7434C183.813 34.7434 184.245 34.6624 184.677 34.5004C186.135 33.9064 187.296 32.9074 188.16 31.5034L188.646 30.8554C189.348 29.7214 190.185 28.7224 191.157 27.8584C192.291 27.0484 193.533 26.6434 194.883 26.6434C196.341 26.6434 197.61 27.0214 198.69 27.7774C200.472 29.0734 201.363 30.8014 201.363 32.9614C201.363 33.6094 201.255 34.2574 201.039 34.9054C200.391 36.5254 199.419 37.9564 198.123 39.1984C195.909 41.6824 193.398 43.8424 190.59 45.6784C187.836 47.5144 184.785 48.4324 181.437 48.4324Z" fill="black"/>
<path id="Vector_2" d="M134.777 51.893H133.481C131.159 51.893 128.864 51.65 126.596 51.164C121.736 50.138 118.361 48.113 116.471 45.089C115.013 42.389 114.284 39.392 114.284 36.098C114.176 33.992 114.122 31.886 114.122 29.78V25.325C114.122 21.869 114.392 18.251 114.932 14.471C115.472 10.691 116.957 7.45101 119.387 4.75101C122.249 1.88901 125.57 0.458008 129.35 0.458008L131.213 0.539012C135.479 1.45701 139.205 3.61701 142.391 7.01901C146.333 10.853 149.303 15.389 151.301 20.627C152.435 23.867 153.002 27.107 153.002 30.347C153.002 32.615 152.732 34.883 152.192 37.151C150.626 42.821 147.467 47.033 142.715 49.787C140.231 51.083 137.585 51.785 134.777 51.893ZM132.59 40.472C133.778 40.472 134.912 40.175 135.992 39.581C139.016 37.745 140.528 34.478 140.528 29.78C140.528 25.082 138.665 20.357 134.939 15.605C133.049 12.851 131.105 11.474 129.107 11.474H127.892C126.596 11.582 125.948 13.877 125.948 18.359L126.029 21.032C126.245 28.808 126.677 34.046 127.325 36.746C127.865 39.176 129.269 40.391 131.537 40.391L132.59 40.472Z" fill="#587DFF"/>
<path id="Vector_3" d="M72.9207 50.818C66.1707 50.764 60.5007 48.631 55.9107 44.419C51.3207 40.153 48.9447 34.591 48.7827 27.733C49.1067 19.795 52.1037 13.396 57.7737 8.53605C62.4717 4.59405 67.6557 2.62305 73.3257 2.62305C74.5677 2.62305 75.8097 2.70405 77.0517 2.86604C82.1817 3.89204 86.5557 6.26804 90.1737 9.99404C93.8457 13.666 95.9517 18.337 96.4917 24.007V25.465C96.4917 31.945 94.3317 37.723 90.0117 42.799C85.6917 47.821 79.9947 50.494 72.9207 50.818ZM72.5157 36.724C76.0257 36.724 78.8337 35.401 80.9397 32.755C82.6137 30.649 83.4507 28.192 83.4507 25.384V24.655C83.1267 21.901 82.0467 19.768 80.2107 18.256C78.3747 16.744 76.1607 15.853 73.5687 15.583H73.1637C70.2477 15.583 67.7097 16.663 65.5497 18.823C63.4437 20.929 62.3097 23.683 62.1477 27.085C62.2557 30.433 63.4437 32.944 65.7117 34.618C67.6557 36.022 69.9237 36.724 72.5157 36.724Z" fill="black"/>
<path id="Vector_4" d="M19.4287 52.6812H19.1857C17.6737 52.6812 16.2697 52.2492 14.9737 51.3852C13.6777 50.4672 12.6517 49.2792 11.8957 47.8212C10.6537 44.9052 10.0327 41.8272 10.0327 38.5872L9.95172 34.5372C9.95172 30.4332 10.1407 26.2482 10.5187 21.9822L10.8427 17.1222C10.2487 17.2302 9.60072 17.2842 8.89872 17.2842C7.00872 17.2842 5.38872 16.9332 4.03872 16.2312C2.25672 15.0972 1.14972 13.5582 0.717719 11.6142L0.636719 10.5612C0.636719 9.53521 0.906719 8.48221 1.44672 7.40221C2.04072 6.32221 2.93172 5.37721 4.11972 4.56721C6.44172 3.10921 9.00672 2.24521 11.8147 1.97521C14.4607 1.5972 17.1337 1.4082 19.8337 1.4082L22.9927 1.48921C25.7467 1.48921 28.2307 2.19121 30.4447 3.5952C32.6587 5.2692 33.7657 7.48321 33.7657 10.2372C33.7657 11.9112 33.1447 13.2882 31.9027 14.3682C31.2007 14.8542 29.8777 15.3402 27.9337 15.8262C25.9897 16.2582 24.0727 16.4742 22.1827 16.4742H21.5347C24.6127 23.4942 26.4217 30.8382 26.9617 38.5062C27.0697 39.3702 27.1237 40.2342 27.1237 41.0982C27.1237 45.5802 25.9087 48.8742 23.4787 50.9802C22.2907 52.0062 20.9407 52.5732 19.4287 52.6812Z" fill="#587DFF"/>
</g>
</svg>
